<?xml version="1.0" encoding="UTF-8" standalone="no"?>
<!-- Created with Inkscape (http://www.inkscape.org/) -->

<svg
   width="147.994mm"
   height="53.724998mm"
   viewBox="0 0 147.994 53.724998"
   version="1.1"
   id="svg1"
   xmlns:inkscape="http://www.inkscape.org/namespaces/inkscape"
   xmlns:sodipodi="http://sodipodi.sourceforge.net/DTD/sodipodi-0.dtd"
   xmlns="http://www.w3.org/2000/svg"
   xmlns:svg="http://www.w3.org/2000/svg">
  <sodipodi:namedview
     id="namedview1"
     pagecolor="#ffffff"
     bordercolor="#000000"
     borderopacity="0.25"
     inkscape:showpageshadow="2"
     inkscape:pageopacity="0.0"
     inkscape:pagecheckerboard="0"
     inkscape:deskcolor="#d1d1d1"
     inkscape:document-units="mm" />
  <defs
     id="defs1" />
  <g
     inkscape:label="Capa 1"
     inkscape:groupmode="layer"
     id="layer1">
    <g
       id="g8"
       transform="matrix(1.6027781,0,0,1.6027781,-4.6970826,-214.25652)">
      <text
         xml:space="preserve"
         style="font-style:normal;font-variant:normal;font-weight:normal;font-stretch:normal;font-size:21.3515px;line-height:0.7;font-family:'Social Science Sans PERSONAL';-inkscape-font-specification:'Social Science Sans PERSONAL';text-align:center;text-anchor:middle;fill:#333333;fill-opacity:1;stroke:#ffffff;stroke-width:0;stroke-linecap:round;stroke-linejoin:round;paint-order:markers stroke fill"
         x="68.438248"
         y="148.62431"
         id="text1"><tspan
           sodipodi:role="line"
           style="font-style:normal;font-variant:normal;font-weight:normal;font-stretch:normal;font-family:'Social Science Sans PERSONAL';-inkscape-font-specification:'Social Science Sans PERSONAL';fill:#333333;fill-opacity:1;stroke-width:0"
           x="68.438248"
           y="148.62431"
           id="tspan2">fERRE</tspan><tspan
           sodipodi:role="line"
           style="font-style:normal;font-variant:normal;font-weight:normal;font-stretch:normal;font-family:'Social Science Sans PERSONAL';-inkscape-font-specification:'Social Science Sans PERSONAL';fill:#333333;fill-opacity:1;stroke-width:0"
           x="68.438248"
           y="163.57036"
           id="tspan3" /></text>
      <text
         xml:space="preserve"
         style="font-style:normal;font-variant:normal;font-weight:normal;font-stretch:normal;font-size:22.8746px;line-height:0.7;font-family:'Social Science Sans PERSONAL';-inkscape-font-specification:'Social Science Sans PERSONAL';text-align:center;text-anchor:middle;fill:#fdad4f;fill-opacity:1;stroke:#ffffff;stroke-width:0;stroke-linecap:round;stroke-linejoin:round;paint-order:markers stroke fill"
         x="68.369476"
         y="166.96959"
         id="text4"><tspan
           sodipodi:role="line"
           id="tspan4"
           style="fill:#fdad4f;fill-opacity:1;stroke-width:0"
           x="68.369476"
           y="166.96959">dEVS</tspan></text>
      <path
         id="rect1-6-8-1"
         style="fill:#15207e;fill-opacity:1;stroke:#ffffff;stroke-width:0;stroke-linecap:round;stroke-linejoin:round;paint-order:markers stroke fill"
         d="m 6.5744018,133.67826 c -2.0184728,0 -3.6438131,1.62485 -3.6438131,3.64332 v 8.47105 l 5.3839399,-0.032 c 2.3367984,-0.17105 5.0686914,-3.55083 5.3474274,-3.87089 2.035013,-2.33879 4.910698,-3.632 8.563086,-3.33321 5.539091,0.56235 6.907942,2.91495 7.311636,4.00144 0.501184,1.30678 0.301412,1.65376 -0.224581,1.82767 l -7.568729,2.05273 c -1.042703,2.51491 -0.114822,5.70193 1.828161,6.99102 l 7.664762,-1.98821 c 1.001864,-0.11832 1.149041,1.35151 0.929834,2.05225 -2.350305,7.62707 -9.16886,10.46694 -14.101082,8.00388 -0.607891,-0.32098 -1.952574,-1.08073 -3.056101,-1.91019 -1.707751,-1.17271 -3.615229,-3.2577 -6.3497889,-3.30319 l -5.7285644,-0.0961 v 7.36666 c 0,2.01847 1.6253403,3.64332 3.6438131,3.64332 H 32.807356 c 2.018473,0 3.643314,-1.62485 3.643314,-3.64332 v -26.23295 c 0,-2.01849 -1.624841,-3.64332 -3.643314,-3.64332 z" />
    </g>
  </g>
</svg>
