<?xml version="1.0" encoding="UTF-8" standalone="no"?>
<!-- Created with Inkscape (http://www.inkscape.org/) -->

<svg
   width="147.994mm"
   height="53.724998mm"
   viewBox="0 0 147.994 53.724998"
   version="1.1"
   id="svg1"
   inkscape:export-filename="logo.svg"
   inkscape:export-xdpi="96"
   inkscape:export-ydpi="96"
   inkscape:version="1.3 (0e150ed6c4, 2023-07-21)"
   sodipodi:docname="logo_colores.svg"
   xmlns:inkscape="http://www.inkscape.org/namespaces/inkscape"
   xmlns:sodipodi="http://sodipodi.sourceforge.net/DTD/sodipodi-0.dtd"
   xmlns="http://www.w3.org/2000/svg"
   xmlns:svg="http://www.w3.org/2000/svg">
  <sodipodi:namedview
     id="namedview1"
     pagecolor="#ffffff"
     bordercolor="#000000"
     borderopacity="0.25"
     inkscape:showpageshadow="2"
     inkscape:pageopacity="0.0"
     inkscape:pagecheckerboard="0"
     inkscape:deskcolor="#d1d1d1"
     inkscape:document-units="mm"
     inkscape:zoom="0.68862935"
     inkscape:cx="193.86336"
     inkscape:cy="134.3248"
     inkscape:window-width="1920"
     inkscape:window-height="1009"
     inkscape:window-x="-8"
     inkscape:window-y="-8"
     inkscape:window-maximized="1"
     inkscape:current-layer="layer1" />
  <defs
     id="defs1" />
  <g
     inkscape:label="Capa 1"
     inkscape:groupmode="layer"
     id="layer1">
    <g
       id="g8"
       transform="matrix(1.6027781,0,0,1.6027781,-4.6970826,-214.25652)">
      <path
         d="m 41.823609,133.67826 v 14.94605 h 4.547869 v -5.70085 h 3.309483 v -3.71516 h -3.309483 v -1.70812 h 3.672458 v -3.82192 z m 9.28789,0 v 14.94605 h 8.220328 v -3.82192 h -3.672458 v -1.87893 h 3.309482 v -3.71516 h -3.309482 v -1.70812 h 3.672458 v -3.82192 z m 14.454954,6.64032 h -0.362976 v -2.79705 h 0.42703 c 1.174333,0 1.665417,0.40568 1.665417,1.3665 0,0.98217 -0.533787,1.43055 -1.729471,1.43055 z m -5.167063,8.30573 h 4.804087 v -4.78273 h 0.597842 l 2.13515,4.78273 h 5.038954 l -2.98921,-5.65814 c 1.537308,-0.89677 2.434071,-2.41272 2.434071,-4.29166 0,-3.05326 -2.348665,-4.99625 -6.021123,-4.99625 H 60.39939 Z m 18.49041,-8.30573 h -0.362976 v -2.79705 h 0.42703 c 1.174333,0 1.665417,0.40568 1.665417,1.3665 0,0.98217 -0.533787,1.43055 -1.729471,1.43055 z m -5.167063,8.30573 h 4.804087 v -4.78273 h 0.597842 l 2.13515,4.78273 h 5.038954 l -2.98921,-5.65814 c 1.537308,-0.89677 2.434071,-2.41272 2.434071,-4.29166 0,-3.05326 -2.348665,-4.99625 -6.021123,-4.99625 h -5.999771 z m 13.323345,-14.94605 v 14.94605 h 8.220327 v -3.82192 h -3.672458 v -1.87893 h 3.309483 v -3.71516 h -3.309483 v -1.70812 h 3.672458 v -3.82192 z"
         id="text1"
         style="font-size:21.3515px;line-height:0.7;font-family:'Social Science Sans PERSONAL';-inkscape-font-specification:'Social Science Sans PERSONAL';text-align:center;text-anchor:middle;fill:#333333;stroke:#ffffff;stroke-width:0;stroke-linecap:round;stroke-linejoin:round;paint-order:markers stroke fill"
         aria-label="fERRE&#10;" />
      <path
         d="m 41.823498,166.96959 h 6.793756 c 4.506296,0 7.479994,-2.95082 7.479994,-7.98324 0,-5.10103 -2.973698,-8.02898 -7.479994,-8.02898 h -6.793756 z m 6.221891,-4.57492 h -1.075106 v -6.83951 h 1.14373 c 1.646971,0 2.493331,1.14373 2.493331,3.43119 0,2.28746 -0.84636,3.40832 -2.561955,3.40832 z m 9.08123,-11.4373 v 16.01222 h 8.806721 v -4.09455 h -3.934431 v -2.01297 h 3.545563 v -3.98018 h -3.545563 v -1.82997 h 3.934431 v -4.09455 z m 9.378573,0 4.437672,16.01222 h 5.901647 l 4.460547,-16.01222 h -5.375531 l -1.852843,10.01907 c -0.0915,0.52612 -0.137247,0.75487 -0.160122,1.30386 -0.02287,-0.50324 -0.0915,-0.80061 -0.182997,-1.30386 l -1.852842,-10.01907 z m 23.080461,11.1628 c 0,0.50325 -0.503241,1.00649 -1.486849,1.00649 -1.212353,0 -1.807093,-0.41175 -1.875717,-1.25811 H 81.76254 c 0,3.93443 2.264586,5.32979 6.221891,5.32979 4.597795,0 7.091126,-1.87572 7.274123,-4.84942 0.114373,-1.96722 -1.006482,-3.68281 -3.271068,-4.5063 -1.852842,-0.68623 -4.757916,-0.68623 -4.757916,-1.89859 0,-0.48036 0.457492,-0.93786 1.463974,-0.93786 1.189479,0 1.829968,0.4575 1.829968,1.5326 h 4.483422 c 0.25162,-3.75143 -2.03584,-5.81015 -6.199017,-5.81015 -4.300425,0 -6.656508,2.40184 -6.839505,4.98667 -0.160122,2.19596 1.189479,3.84293 3.293942,4.57492 1.829968,0.64048 4.323299,0.50324 4.323299,1.82996 z"
         id="text4"
         style="font-size:22.8746px;line-height:0.7;font-family:'Social Science Sans PERSONAL';-inkscape-font-specification:'Social Science Sans PERSONAL';text-align:center;text-anchor:middle;fill:#fdad4f;stroke:#ffffff;stroke-width:0;stroke-linecap:round;stroke-linejoin:round;paint-order:markers stroke fill"
         aria-label="dEVS" />
      <path
         id="rect1-6-8-1"
         style="fill:#15207e;fill-opacity:1;stroke:#ffffff;stroke-width:0;stroke-linecap:round;stroke-linejoin:round;paint-order:markers stroke fill"
         d="m 6.5744018,133.67826 c -2.0184728,0 -3.6438131,1.62485 -3.6438131,3.64332 v 8.47105 l 5.3839399,-0.032 c 2.3367984,-0.17105 5.0686914,-3.55083 5.3474274,-3.87089 2.035013,-2.33879 4.910698,-3.632 8.563086,-3.33321 5.539091,0.56235 6.907942,2.91495 7.311636,4.00144 0.501184,1.30678 0.301412,1.65376 -0.224581,1.82767 l -7.568729,2.05273 c -1.042703,2.51491 -0.114822,5.70193 1.828161,6.99102 l 7.664762,-1.98821 c 1.001864,-0.11832 1.149041,1.35151 0.929834,2.05225 -2.350305,7.62707 -9.16886,10.46694 -14.101082,8.00388 -0.607891,-0.32098 -1.952574,-1.08073 -3.056101,-1.91019 -1.707751,-1.17271 -3.615229,-3.2577 -6.3497889,-3.30319 l -5.7285644,-0.0961 v 7.36666 c 0,2.01847 1.6253403,3.64332 3.6438131,3.64332 H 32.807356 c 2.018473,0 3.643314,-1.62485 3.643314,-3.64332 v -26.23295 c 0,-2.01849 -1.624841,-3.64332 -3.643314,-3.64332 z" />
    </g>
  </g>
</svg>
